Medium.sfdir
StartChar: dollar
Encoding: 36 36 4
Width: 500
Flags: HMW
LayerCount: 2
Fore
SplineSet
44 61 m 1
 56 130 l 1
 76 114 119 50 220 35 c 1
 220 337 l 1
 219 337 l 1
 97 365 55 459 55 534 c 0
 55 616 106 710 220 731 c 1
 220 750 l 1
 279 750 l 1
 279 732 l 1
 339 726 377 711 427 675 c 1
 415 609 l 1
 369 644 335 682 279 687 c 1
 279 414 l 1
 409 383 443 275 443 203 c 0
 443 96 372 7 279 -8 c 1
 279 -28 l 1
 220 -28 l 1
 220 -10 l 1
 163 -4 103 15 44 61 c 1
128 547 m 0
 128 504 151 449 220 430 c 1
 220 685 l 1
 219 685 l 1
 148 662 128 587 128 547 c 0
279 38 m 1
 352 61 370 148 370 190 c 0
 370 233 353 296 279 322 c 1
 279 288 l 1
 279 38 l 1
EndSplineSet
EndChar
StartChar: percent
Encoding: 37 37 5
Width: 833
Flags: HMW
LayerCount: 2
Fore
SplineSet
55 556 m 0
 55 616 75 670 106 706 c 0
 130 733 161 750 195 750 c 0
 225 750 256 735 282 706 c 0
 311 673 333 622 333 555 c 0
 333 496 314 443 285 408 c 0
 261 379 229 361 195 361 c 0
 162 361 129 379 103 410 c 0
 75 444 55 494 55 556 c 0
130 556 m 0
 130 506 138 455 149 436 c 0
 168 401 195 404 198 403 c 1
 216 405 233 420 245 446 c 0
 256 469 263 519 263 556 c 0
 263 601 253 657 238 680 c 0
 226 699 210 709 195 709 c 0
 181 709 164 702 151 680 c 0
 141 664 134 620 131 586 c 0
 130 577 130 567 130 556 c 0
176 -7 m 0
 176 1 183 11 185 13 c 1
 620 737 l 2
 623 742 630 749 639 749 c 0
 649 749 658 741 658 730 c 0
 658 721 650 710 646 702 c 2
 221 -5 l 2
 215 -14 209 -27 196 -27 c 0
 185 -27 176 -18 176 -7 c 0
499 167 m 0
 499 222 516 272 543 308 c 0
 568 341 602 361 639 361 c 0
 672 361 703 345 726 318 c 0
 752 288 769 246 775 198 c 0
 776 188 777 177 777 166 c 0
 777 112 761 63 736 28 c 0
 711 -7 677 -28 639 -28 c 0
 602 -28 565 -6 538 32 c 0
 514 66 499 112 499 167 c 0
574 167 m 0
 574 109 585 56 598 38 c 0
 617 12 640 15 642 14 c 1
 658 16 673 28 685 48 c 0
 698 71 707 125 707 167 c 0
 707 214 696 271 680 294 c 0
 668 311 653 320 639 320 c 0
 626 320 609 313 596 292 c 0
 586 276 578 231 575 194 c 0
 574 186 574 177 574 167 c 0
EndSplineSet
EndChar
StartChar: ampersand
Encoding: 38 38 6
Width: 758
Flags: HMW
LayerCount: 2
Fore
SplineSet
41 150 m 0
 41 246 110 286 194 365 c 1
 177 414 161 476 161 541 c 0
 161 658 217 744 300 744 c 0
 378 744 429 665 429 584 c 0
 429 554 421 517 376 460 c 0
 353 431 322 398 277 358 c 1
 333 244 430 135 445 116 c 9
 446 116 l 17
 489 153 533.029296875 204.983398438 559 250 c 0
 589 302 609 356 622 405 c 1
 666 389 l 1
 651 333 629 276 596 220 c 0
 567 171 531 124 484 81 c 1
 500 67 514 54 528 44 c 0
 543.28866388 33.0795257998 563 22 587 22 c 0
 610 22 630 32 648 38 c 0
 675.917736298 47.3059120993 697 60 701 60 c 1
 701 -7 l 1
 689 -10 669 -14 646 -17 c 0
 628 -20 607 -22 587 -22 c 0
 548 -22 515 -14 484 -0 c 0
 464 9 445 22 426 37 c 1
 425 37 l 1
 379 7 304 -22 224 -22 c 0
 125 -22 41 51 41 150 c 0
119 158 m 0
 119 101 156 22 226 22 c 0
 272 22 333 45 386 74 c 1
 359 105 268 208 220 305 c 1
 160 251 119 225 119 158 c 0
226 576 m 0
 226 520 238 467 253 420 c 1
 288 451 312 479 328 502 c 0
 353 538 360 565 360 585 c 0
 360 620 348 703 299 703 c 0
 270 703 226 657 226 576 c 0
EndSplineSet
EndChar
StartChar: asterisk
Encoding: 42 42 10
Width: 500
Flags: MW
LayerCount: 2
Fore
SplineSet
64 435 m 0
 64 456 81 465 92 470 c 2
 199 527 l 1
 199 528 l 1
 76 593 64 594 64 620 c 0
 64 639 80 655 99 655 c 0
 115 655 128 641 223 576 c 1
 220 621 215 708 215 713 c 0
 215 742 238 750 250 750 c 0
 260 750 284 743 284 716 c 0
 284 706 282 680 276 576 c 1
 381 649 387 655 399 655 c 0
 421 655 435 638 435 620 c 0
 435 599 418 591 408 585 c 2
 300 528 l 1
 300 527 l 1
 423 462 435 461 435 435 c 0
 435 416 419 400 400 400 c 0
 382 400 375 412 276 480 c 1
 279 434 284 347 284 343 c 0
 284 313 262 306 250 306 c 0
 231 306 215 321 215 339 c 0
 215 347 217 371 223 480 c 1
 119 407 113 400 100 400 c 0
 79 400 64 418 64 435 c 0
EndSplineSet
EndChar
StartChar: plus
Encoding: 43 43 11
Width: 778
Flags: MW
LayerCount: 2
Fore
SplineSet
55 250 m 3
 55 278.037198408 77.5452200274 281 102 281 c 2
 358 281 l 1
 358 538 l 2
 358 562.687275817 363.275876457 583 388 583 c 0
 415.250915954 583 419 558.351520903 419 538 c 2
 419 281 l 1
 675 281 l 2
 701.991904007 281 719.510825072 275.315973773 721 250 c 0
 719.490261093 224.334438582 704.29315767 220 681 220 c 2
 419 220 l 1
 419 -38 l 2
 419 -60.1764692805 412.377284192 -83 389 -83 c 0
 361.208638196 -83 358 -60.9588230863 358 -38 c 2
 358 220 l 1
 100 220 l 2
 70.9571907078 220 55 229.637608892 55 250 c 3
EndSplineSet
EndChar
StartChar: zero
Encoding: 48 48 16
Width: 500
Flags: HMW
LayerCount: 2
Fore
SplineSet
41 310 m 2
 41 329 l 2
 41 427 48 615 186 666 c 0
 204 673 224 678 249 678 c 0
 301 678 351 655 385 616 c 0
 445 548 456 433 458 360 c 0
 458 347 458 335 458 325 c 0
 458 122 407 24 312 -11 c 0
 295 -18 275 -22 249 -22 c 0
 166 -22 42 26 41 310 c 2
119 308 m 2
 119 143 159 57 201 32 c 0
 218 22 235 19 250 19 c 0
 270 19 295 25 317 46 c 0
 351 79 380 168 380 309 c 2
 380 370 l 2
 380 468 364 548 341 584 c 0
 314 627 278 636 249 636 c 0
 197 636 119 583 119 370 c 2
 119 308 l 2
EndSplineSet
EndChar
StartChar: one
Encoding: 49 49 17
Width: 500
Flags: HMW
LayerCount: 2
Fore
SplineSet
220 0 m 1
 220 597 l 1
 185 583 150 574 90 574 c 1
 90 612 l 1
 205 612 254 653 281 678 c 1
 300 678 l 1
 300 0 l 1
 220 0 l 1
EndSplineSet
EndChar
StartChar: two
Encoding: 50 50 18
Width: 500
Flags: HMW
LayerCount: 2
Fore
SplineSet
41 514 m 1
 66 598 119 678 235 678 c 0
 368 678 449 577 449 464 c 0
 449 367 386 313 282 221 c 0
 249 192 201 146 121 70 c 1
 449 71 l 1
 449 -0 l 1
 49 -0 l 1
 49 65 l 1
 179 174 l 2
 275 263 366 354 366 461 c 0
 366 545 308 633 222 633 c 0
 100 633 88 461 84 459 c 1
 41 514 l 1
EndSplineSet
EndChar
StartChar: three
Encoding: 51 51 19
Width: 500
Flags: HMW
LayerCount: 2
Fore
SplineSet
41 81 m 1
 52 122 l 1
 85 77 124 52 158 38 c 0
 196 22 229 20 244 20 c 0
 282 20 312 36 334 62 c 0
 355 87 367 142 367 182 c 0xe8
 367 192 367 202 365 212 c 0
 360 246 344 276 320 296 c 0
 300 313 273 333 239 333 c 2
 166 333 l 1
 166 375 l 1
 224 379 231 380 238 381 c 0
 304 393 347 464 347 525 c 0
 347 552 337 596 320 612 c 0
 302 629 277 638 246 638 c 0
 218 638 190 630 166 617 c 0
 143 604 122 586 107 563 c 0
 101 554 96 544 91 534 c 1
 55 569 l 1
 81 609 111 635 140 651 c 0
 183 675 225 678 248 678 c 0
 292 678 335 664 368 640 c 0
 405 613 429 573 429 525 c 0xf0
 429 497 422 455 390 414 c 0
 373 393 350 372 318 354 c 1
 357 340 388 320 410 296 c 0
 442 262 457 221 457 180 c 0
 457 127 433 71 388 31 c 0
 352 -1 304 -22 245 -22 c 0
 227 -22 185 -20 138 2 c 0
 106 17 72 42 41 81 c 1
EndSplineSet
EndChar
StartChar: four
Encoding: 52 52 20
Width: 500
Flags: HMW
LayerCount: 2
Fore
SplineSet
27 171 m 1
 27 219 l 0
 27 232 28 234 38 250 c 2
 280 655 l 1
 372 655 l 1
 372 232 l 1xe8
 471 232 l 1
 471 171 l 1
 372 171 l 1
 372 -0 l 1
 292 -0 l 1
 292 171 l 1xf0
 27 171 l 1
75 232 m 1
 298 232 l 1xe8
 298 618 l 1
 282 570 203 449 75 232 c 1
EndSplineSet
EndChar
StartChar: five
Encoding: 53 53 21
Width: 500
Flags: HMW
LayerCount: 2
Fore
SplineSet
38 76 m 1
 72 112 l 1
 76 105 81 99 85 93 c 0
 103 69 124 52 144 41 c 0
 177 23 210 20 228 20 c 0
 258 20 297 32 325 67 c 0
 345 92 359 150 359 205 c 0
 359 216 359 227 358 237 c 0
 354 284 339 335 322 355 c 0
 302 378 277 386 257 386 c 0
 178 386 127 306 127 306 c 1
 79 306 l 1
 79 655 l 1
 416 655 l 1
 416 581 l 1
 132 581 l 1
 132 386 l 1
 165 411 212 427 259 427 c 0
 308 427 353 405 388 367 c 0
 425 327 449 270 449 204 c 0
 449 140 424 82 382 41 c 0
 343 2 289 -22 229 -22 c 0
 187 -22 147 -11 112 9 c 0
 83 26 57 49 38 76 c 1
EndSplineSet
EndChar
StartChar: seven
Encoding: 55 55 23
Width: 500
Flags: HMW
LayerCount: 2
Fore
SplineSet
41 575 m 1
 41 656 l 1
 457 655 l 1
 457 580 l 1
 216 -11 l 1
 151 -11 l 1
 409 575 l 1
 41 575 l 1
EndSplineSet
EndChar
StartChar: eight
Encoding: 56 56 24
Width: 500
Flags: HMW
LayerCount: 2
Fore
SplineSet
41 180 m 0xf2
 41 249 82 319 180 354 c 1
 102 377 55 438 55 502 c 0
 55 595 138 678 249 678 c 0
 251 678 252 678 254 678 c 0
 357 676 433 598 433 503 c 0xec
 433 443 406 385 318 354 c 1
 382 334 457 276 457 179 c 0
 457 74 367 -22 249 -22 c 0
 131 -22 41 73 41 180 c 0xf2
102 181 m 0
 102 131 129 81 159 57 c 0
 180 40 217 20 249 20 c 0
 277 20 317 39 341 59 c 0
 367 81 376 128 376 182 c 0xf2
 376 191 375 200 374 209 c 0
 369 243 355 271 334 291 c 0
 312 312 283 323 248 323 c 0
 224 323 195 315 172 297 c 0
 148 278 108 249 103 205 c 0
 102 197 102 189 102 181 c 0
125 502 m 0
 125 465 139 435 162 415 c 0
 184 396 214 385 248 385 c 0
 282 385 311 395 332 412 c 0
 358 433 383 464 383 502 c 0
 383 512 382 522 380 531 c 0
 374 558 369 591 348 606 c 0
 327 621 300 639 269 639 c 0xec
 236 639 197 630 176 613 c 0
 154 595 130 550 126 519 c 0
 125 514 125 508 125 502 c 0
EndSplineSet
EndChar
StartChar: nine
Encoding: 57 57 25
Width: 500
Flags: HMW
LayerCount: 2
Fore
SplineSet
42 435 m 0
 42 508 61 563 114 618 c 0
 156 660 197 678 252 678 c 0
 291 678 339 665 379 621 c 0
 423 572 457 485 457 333 c 0
 457 220 422 124 369 61 c 0
 325 8 267 -22 205 -22 c 0
 143 -22 108 -3 72 24 c 1
 103 58 l 1
 126 42 151 20 207 20 c 0
 255 20 298 47 329 99 c 0
 348 132 363 194 370 245 c 0
 371 255 372 265 373 276 c 1
 329 224 272 193 204 193 c 0
 152 193 123 216 96 254 c 0
 54 312 42 366 42 435 c 0
124 435 m 0
 124 381 127 323 156 281 c 0
 175 254 201 235 243 235 c 0
 281 235 314 253 336 281 c 0
 358 309 371 368 371 410 c 0
 371 476 352 638 253 638 c 0
 225 638 202 629 184 615 c 0
 153 591 136 534 130 507 c 0
 124 483 124 460 124 435 c 0
EndSplineSet
EndChar
StartChar: equal
Encoding: 61 61 29
Width: 778
Flags: MW
LayerCount: 2
Fore
SplineSet
56 150 m 0
 56 167.220005635 68.8466958924 181 92 181 c 0
 95 181 99 180 102 180 c 2
 683 180 l 2
 706.03282291 180 721 166.724911269 721 150 c 0
 721 130.583495913 704.831338113 119 680 119 c 2
 95 119 l 2
 71.3352682584 119 56 131.891549399 56 150 c 0
56 350 m 0
 56 368.547982132 71.4113822551 381 96 381 c 2
 681 381 l 2
 705.960863492 381 721 367.917784932 721 350 c 0
 721 331.896254378 706.339328233 320 684 320 c 2
 93 320 l 2
 68.5103779418 320 56 332.171592803 56 350 c 0
EndSplineSet
EndChar
StartChar: greater
Encoding: 62 62 30
Width: 778
Flags: MW
LayerCount: 2
Fore
SplineSet
83 -28 m 0
 83 -6 104 2 118 9 c 2
 595 250 l 1
 578 259 555 270 534 281 c 2
 118 491 l 2
 104 498 83 506 83 528 c 0
 83 543 96 558 114 558 c 0
 125 558 141 548 153 542 c 2
 660 286 l 6
 688.346798518 271.686823628 693 258.246211251 693 250 c 3
 693 233.875484503 689 229 660 214 c 2
 135 -51 l 2
 128 -55 121 -58 114 -58 c 0
 96 -58 83 -43 83 -28 c 0
EndSplineSet
EndChar
StartChar: question
Encoding: 63 63 31
Width: 472
Flags: HMW
LayerCount: 2
Fore
SplineSet
55 677 m 1
 94 705 144 730 210 733 c 0
 214 733 219 733 223 733 c 0
 382 733 416 636 416 571 c 0
 416 484 363 450 347 434 c 0
 253 343 245 246 245 215 c 2
 245 175 l 1
 198 175 l 1
 198 207 l 2
 198 414 293 476 318 508 c 0
 322 513 338 534 338 572 c 0
 338 652 282 692 225 692 c 0xd8
 155 692 111 642 78 614 c 1
 55 677 l 1
EndSplineSet
Refer: 14 46 N 1 0 0 1 84 0 2
EndChar
StartChar: at
Encoding: 64 64 32
Width: 667
Flags: MW
LayerCount: 2
Fore
SplineSet
55 362 m 0
 55 575 214 733 385 733 c 0
 606 733 610 476 610 368 c 0
 610 283 582 219 543 179 c 0
 509 144 466 126 425 126 c 0
 324 126 240 229 240 361 c 0
 240 492 323 597 425 597 c 0
 446 597 462 593 475 588 c 0
 491 582 502 574 510 570 c 1
 483 645 436 672 386 672 c 0
 260 672 130 548 130 361 c 0
 130 187 247 51 391 51 c 0
 476 51 533 85 546 87 c 0
 554 89 562 88 570 88 c 2
 610 88 l 1
 551 22 468 -11 388 -11 c 0
 211 -11 55 148 55 362 c 0
315 362 m 0
 315 260 367 187 425 187 c 0
 454 187 486 208 508 247 c 0
 524 275 535 314 535 360 c 0
 535 467 480 535 424 535 c 0
 396 535 367 516 346 483 c 4
 327 453 315 411 315 362 c 0
EndSplineSet
EndChar
StartChar: A
Encoding: 65 65 33
Width: 667
Flags: HW
LayerCount: 2
Fore
SplineSet
27 -0 m 1
 288 694 l 1
 377 694 l 1
 637 -0 l 1
 545 -0 l 1
 470 204 l 1
 156 204 l 1
 82 0 l 1
 27 -0 l 1
173 250 m 1
 453 250 l 1
 453 250 373 457 326 589 c 25
 326 589 318 616 313 634 c 17
 298 561 258 487 173 250 c 1
EndSplineSet
EndChar
StartChar: B
Encoding: 66 66 34
Width: 667
Flags: HMW
LayerCount: 2
Fore
SplineSet
96 0 m 1
 96 694 l 1
 318 694 l 2
 391 694 447 679 488 657 c 0
 555 620 582 563 582 520 c 0xf8
 582 457 529 392 414 363 c 1
 515 347 610 282 610 188 c 0
 610 121 564 65 500 32 c 0
 468 16 432 6 395 2 c 0
 378 0 361 0 344 0 c 2
 96 0 l 1
180 36 m 1
 322 36 l 2
 408 36 468 83 500 119 c 0
 519 140 528 165 528 189 c 0xf4
 528 233 494 281 432 308 c 0
 409 318 382 336 351 339 c 0
 334 340 317 340 300 340 c 2
 181 340 l 1
 180 303 l 1
 180 36 l 1
180 382 m 1
 300 382 l 2
 378 382 435 416 468 447 c 0
 491 469 503 494 503 519 c 0xf8
 503 567 449 658 295 658 c 2
 181 658 l 1
 180 623 l 1
 180 382 l 1
EndSplineSet
EndChar
StartChar: C
Encoding: 67 67 35
Width: 639
Flags: HMW
LayerCount: 2
Fore
SplineSet
66 347 m 0
 66 541 198 716 396 716 c 0
 467 716 525 701 577 682 c 1
 562 599 l 1
 508 637 467 672 392 672 c 0
 251 672 156 505 156 347 c 0
 156 186 251 22 395 22 c 0
 497 22 532 50 582 83 c 1
 588 33 l 1
 518 -8 478 -22 394 -22 c 0
 197 -22 66 155 66 347 c 0
EndSplineSet
EndChar
StartChar: D
Encoding: 68 68 36
Width: 722
Flags: HMW
LayerCount: 2
Fore
SplineSet
95 0 m 1
 95 694 l 1
 341 694 l 2
 404 694 454 686 513 647 c 0
 611 582 666 462 666 342 c 0
 666 166 548 20 391 2 c 0
 375 0 359 0 343 0 c 2
 95 0 l 1
182 36 m 1
 325 36 l 2
 357 36 451 56 520 148 c 0
 562 203 579 272 579 341 c 0
 579 402 567 451 550 489 c 0
 525 546 489 589 466 606 c 0
 419 640 376 658 325 658 c 2
 182 658 l 1
 182 36 l 1
EndSplineSet
EndChar
StartChar: E
Encoding: 69 69 37
Width: 597
Flags: HMW
LayerCount: 2
Fore
SplineSet
94 0 m 1
 94 691 l 1
 541 691 l 1
 541 645 l 1
 184 647 l 1
 184 380 l 1
 514 380 l 1
 514 339 l 1
 184 339 l 1
 184 50 l 1
 555 52 l 1
 555 0 l 1
 94 0 l 1
EndSplineSet
EndChar
StartChar: F
Encoding: 70 70 38
Width: 569
Flags: HMW
LayerCount: 2
Fore
SplineSet
94 0 m 1
 94 691 l 1
 527 691 l 1
 527 645 l 5
 184 647 l 5
 184 376 l 1
 485 376 l 1
 485 335 l 5
 184 335 l 5
 184 0 l 1
 94 0 l 1
EndSplineSet
EndChar
StartChar: G
Encoding: 71 71 39
Width: 667
Flags: HMW
LayerCount: 2
Fore
SplineSet
66 347 m 0
 66 541 200 716 391 716 c 0
 478 716 533 697 591 668 c 1
 576 585 l 1
 520 627 476 672 393 672 c 0
 251 672 156 506 156 348 c 0
 156 176 260 22 392 22 c 0
 466 22 514 42 521 43 c 1
 521 257 l 1
 388 257 l 1
 388 299 l 1
 599 299 l 1
 599 26 l 1
 523 -9 454 -22 391 -22 c 0
 208 -22 66 144 66 347 c 0
EndSplineSet
EndChar
StartChar: J
Encoding: 74 74 42
Width: 472
Flags: HMW
LayerCount: 2
Fore
SplineSet
41 20 m 1
 54 75 l 1
 63 68 106 20 183 20 c 0
 240 20 301 63 301 157 c 2
 301 694 l 1
 388 694 l 1
 388 155 l 2
 388 13 293 -22 212 -22 c 0
 161 -22 102 -11 41 20 c 1
EndSplineSet
EndChar
StartChar: K
Encoding: 75 75 43
Width: 694
Flags: HMW
LayerCount: 2
Fore
SplineSet
95 -0 m 1
 95 694 l 1
 181 694 l 1
 181 303 l 1
 564 694 l 1
 637 694 l 1
 369 420 l 1
 369 419 l 1
 651 -0 l 1
 557 -0 l 1
 314 363 l 1
 181 228 l 1
 181 -0 l 1
 95 -0 l 1
EndSplineSet
EndChar
StartChar: L
Encoding: 76 76 44
Width: 542
Flags: HMW
LayerCount: 2
Fore
SplineSet
94 0 m 1
 94 694 l 1
 184 694 l 1
 184 45 l 1
 499 46 l 1
 499 0 l 1
 94 0 l 1
EndSplineSet
EndChar
StartChar: M
Encoding: 77 77 45
Width: 875
Flags: HMW
LayerCount: 2
Fore
SplineSet
100 -0 m 1
 100 694 l 1
 214 694 l 1
 363 293 l 2
 404 181 433 116 437 92 c 1
 438 92 l 1
 443 126 504 268 511 292 c 2
 660 694 l 1
 775 694 l 1
 775 -0 l 1
 677 0 l 1
 677 592 l 2
 677 612 676 624 676 624 c 1
 676 624 673 606 666 587 c 2
 666 587 624 487 601 423 c 25
 452 22 l 1
 380 22 l 1
 237 411 l 2
 199 517 167 580 158 624 c 1
 158 0 l 1
 100 -0 l 1
EndSplineSet
EndChar
StartChar: N
Encoding: 78 78 46
Width: 708
Flags: HMW
LayerCount: 2
Fore
SplineSet
95 -0 m 1
 95 694 l 1
 200 694 l 1
 515 150 l 1
 563 70 l 1
 563 694 l 1
 611 694 l 1
 611 -0 l 1
 506 0 l 1
 191 544 l 1
 143 624 l 1
 143 0 l 1
 95 -0 l 1
EndSplineSet
EndChar
StartChar: O
Encoding: 79 79 47
Width: 736
Flags: HMW
LayerCount: 2
Fore
SplineSet
55 345 m 0
 55 554 199 716 368 716 c 0
 534 716 679 555 679 345 c 0
 679 143 542 -22 367 -22 c 0
 204 -22 55 132 55 345 c 0
145 359 m 0
 145 190 234 23 367 23 c 0
 494 23 590 182 590 359 c 0
 590 540 483 672 367 672 c 0
 244 672 145 531 145 359 c 0
EndSplineSet
EndChar
StartChar: P
Encoding: 80 80 48
Width: 639
Flags: HMW
LayerCount: 2
Fore
SplineSet
95 0 m 1
 95 694 l 1
 331 694 l 2
 385 694 434 688 485 655 c 0
 546 618 582 558 582 493 c 0
 582 409 513 308 335 308 c 0
 324 308 313 309 302 309 c 2
 185 309 l 1
 185 0 l 1
 95 0 l 1
182 347 m 1
 315 347 l 2
 464 347 501 434 501 493 c 0
 501 550 464 658 315 658 c 2
 182 658 l 1
 182 347 l 1
EndSplineSet
EndChar
StartChar: Q
Encoding: 81 81 49
Width: 736
Flags: HMW
LayerCount: 2
Fore
SplineSet
55 345 m 0
 55 513 153 674 310 710 c 0
 329 714 348 716 367 716 c 0
 438 716 506 687 559 638 c 0
 632 571 680 466 680 345 c 0
 680 152 565 58 533 33 c 1
 652 -125 l 1
 547 -125 l 1
 463 -5 l 1
 436 -13 411 -22 367 -22 c 0
 296 -22 230 6 177 54 c 0
 104 120 55 224 55 345 c 0
142 344 m 0
 142 199 212 63 311 31 c 0
 329 25 348 22 368 22 c 0
 396 22 425 31 434 36 c 1
 323 195 l 1
 412 195 l 1
 504 72 l 1
 505 72 l 1
 537 101 593 191 593 344 c 0
 593 452 557 562 500 616 c 0
 463 652 416 672 366 672 c 2
 365 672 l 2
 313 671 264 648 225 606 c 0
 179 557 148 463 143 370 c 0
 143 361 142 353 142 344 c 0
EndSplineSet
EndChar
StartChar: R
Encoding: 82 82 50
Width: 646
Flags: HMW
LayerCount: 2
Fore
SplineSet
95 0 m 1
 95 694 l 1
 321 694 l 2
 396 694 452 678 493 655 c 0
 563 615 589 553 589 508 c 0
 589 437 536 360 418 326 c 1
 617 0 l 1
 527 0 l 1
 340 316 l 1
 182 316 l 1
 182 0 l 1
 95 0 l 1
182 358 m 1
 296 358 l 2
 331 358 370 356 413 371 c 0
 480 394 508 461 508 507 c 0
 508 540 494 601 447 629 c 0
 418 646 376 658 317 658 c 2
 182 658 l 1
 182 358 l 1
EndSplineSet
EndChar
StartChar: T
Encoding: 84 84 52
Width: 680
Flags: HMW
LayerCount: 2
Fore
SplineSet
35 643 m 1
 35 689 l 1
 643 689 l 1
 643 643 l 1
 384 644 l 1
 384 0 l 1
 295 0 l 1
 295 644 l 1
 35 643 l 1
EndSplineSet
EndChar
StartChar: U
Encoding: 85 85 53
Width: 687
Flags: HMW
LayerCount: 2
Fore
SplineSet
94 257 m 2
 94 694 l 1
 184 694 l 1
 184 259 l 2
 184 232 182 204 186 177 c 0
 190 142 202 107 223 78 c 0
 250 41 306 14 361 14 c 0
 401 14 449 29 481 62 c 0
 509 91 530 134 534 192 c 2
 534 694 l 1
 593 694 l 1
 593 266 l 2
 593 242 603 126 518 40 c 0
 484 6 439 -22 361 -22 c 0
 295 -22 221 3 177 43 c 0
 134 82 104 136 96 196 c 0
 94 217 94 237 94 257 c 2
EndSplineSet
EndChar
StartChar: V
Encoding: 86 86 54
Width: 667
Flags: HMW
LayerCount: 2
Fore
SplineSet
14 694 m 1
 107 694 l 1
 260 300 l 2
 311 163 339 107 351 60 c 1
 357 102 428 260 439 295 c 2
 594 694 l 1
 652 694 l 1
 379 -0 l 1
 287 -0 l 1
 14 694 l 1
EndSplineSet
EndChar
StartChar: W
Encoding: 87 87 55
Width: 944
Flags: HMW
LayerCount: 2
Fore
SplineSet
14 694 m 1
 116 694 l 1
 116 694 214 359 249 208 c 10
 283 70 l 1
 287 115 317 225 335 290 c 2
 450 694 l 1
 532 694 l 1
 532 694 598 476 650 283 c 2
 679 175 l 18
 693 125 700 80 702 70 c 1
 705 104 739 229 755 289 c 2
 872 694 l 1
 929 694 l 1
 726 0 l 1
 639 0 l 1
 532 369 l 2
 476 577 483 549 469 624 c 1
 465 585 429 454 410 388 c 2
 298 0 l 1
 218 0 l 1
 14 694 l 1
EndSplineSet
EndChar
StartChar: X
Encoding: 88 88 56
Width: 667
Flags: HMW
LayerCount: 2
Fore
SplineSet
14 -0 m 1
 288 359 l 1
 288 360 l 1
 28 694 l 1
 133 694 l 1
 335 420 l 1
 544 694 l 1
 610 694 l 1
 364 372 l 1
 364 371 l 1
 652 -0 l 1
 547 -0 l 1
 321 313 l 1
 319 313 l 1
 80 0 l 1
 14 -0 l 1
EndSplineSet
EndChar
StartChar: Y
Encoding: 89 89 57
Width: 667
Flags: HMW
LayerCount: 2
Fore
SplineSet
2 694 m 1
 107 694 l 1
 259 481 l 2
 303 415 336 376 351 348 c 1
 378 397 499 559 594 694 c 17
 662 694 l 1
 396 298 l 1
 396 0 l 1
 299 0 l 1
 299 278 l 1
 2 694 l 1
EndSplineSet
EndChar
StartChar: Z
Encoding: 90 90 58
Width: 611
Flags: HMW
LayerCount: 2
Fore
SplineSet
55 -0 m 1
 55 25 l 2
 55 44 56 44 68 63 c 2
 440 652 l 1
 69 651 l 1
 69 694 l 1
 555 694 l 1
 555 670 l 2
 555 651 554 652 542 633 c 2
 170 45 l 1
 560 46 l 1
 560 -0 l 1
 55 -0 l 1
EndSplineSet
EndChar
StartChar: bracketleft
Encoding: 91 91 59
Width: 289
Flags: HMW
LayerCount: 2
Fore
SplineSet
100 -250 m 1xd0
 100 750 l 1
 266 750 l 1
 266 709 l 1xd0
 175 709 l 1
 175 -209 l 1xe0
 266 -209 l 1
 266 -250 l 1
 100 -250 l 1xd0
EndSplineSet
EndChar
StartChar: bracketright
Encoding: 93 93 61
Width: 289
Flags: HMW
LayerCount: 2
Fore
SplineSet
21 -209 m 1xe0
 111 -209 l 1
 111 709 l 1xd0
 21 709 l 1
 21 750 l 1
 187 750 l 1
 187 -250 l 1
 21 -250 l 1
 21 -209 l 1xe0
EndSplineSet
EndChar
StartChar: a
Encoding: 97 97 65
Width: 480
Flags: HMW
LayerCount: 2
Fore
SplineSet
44 113 m 0
 44 219 219 244 322 245 c 1
 322 279 l 2
 321 311 320 361 296 391 c 0
 272 420 246 421 233 421 c 0
 159 421 117 373 83 350 c 1
 77 417 l 1
 124 444 169 461 236 461 c 0
 330 461 394 387 400 305 c 2
 400 0 l 1
 324 0 l 1
 324 35 l 1
 271 -2 205 -11 158 -11 c 0
 74 -11 44 67 44 113 c 0
117 114 m 0
 117 77 157 31 210 31 c 0
 256 31 322 66 322 130 c 2
 322 213 l 1
 249 212 117 177 117 114 c 0
EndSplineSet
EndChar
StartChar: b
Encoding: 98 98 66
Width: 517
Flags: HMW
LayerCount: 2
Fore
SplineSet
81 0 m 1
 81 722 l 1
 156 722 l 1
 156 397 l 1
 221 448 285 455 316 455 c 0
 415 455 480 344 480 224 c 0
 480 93 398 -11 293 -11 c 0
 234 -11 193 16 159 46 c 1
 159 0 l 1
 81 0 l 1
159 133 m 2
 159 107 163 88 176 70 c 0
 199 41 229 30 258 30 c 0
 315 30 401 92 401 223 c 0
 401 356 320 414 266 414 c 0
 215 414 159 357 159 320 c 2
 159 133 l 2
EndSplineSet
EndChar
StartChar: c
Encoding: 99 99 67
Width: 444
Flags: HMW
LayerCount: 2
Fore
SplineSet
35 223 m 0
 35 339 115 461 255 461 c 0
 317 461 349 452 410 417 c 1
 398 351 l 1
 359 375 333 417 254 417 c 0
 170 417 125 330 115 255 c 0
 114 244 113 234 113 223 c 0
 113 126 169 33 253 33 c 0
 331 33 378 65 410 87 c 1
 415 40 l 1
 370 10 321 -11 252 -11 c 0
 129 -11 35 94 35 223 c 0
EndSplineSet
EndChar
StartChar: d
Encoding: 100 100 68
Width: 517
Flags: HMW
LayerCount: 2
Fore
SplineSet
35 221 m 0
 35 303 65 374 112 416 c 0
 140 441 175 456 213 456 c 0
 275 456 323 429 358 401 c 1
 358 722 l 1
 434 722 l 1
 434 0 l 1
 355 0 l 1
 355 52 l 1
 321 20 273 -11 207 -11 c 0
 171 -11 138 3 111 28 c 0
 65 70 35 142 35 221 c 0
113 222 m 0
 113 150 137 85 168 60 c 0
 193 39 224 31 248 31 c 0
 307 31 355 101 355 134 c 2
 355 325 l 2
 355 341 353 367 334 384 c 0
 304 413 271 414 260 414 c 2
 258 414 l 2
 200 414 113 353 113 222 c 0
EndSplineSet
EndChar
StartChar: e
Encoding: 101 101 69
Width: 444
Flags: HMW
LayerCount: 2
Fore
SplineSet
34 226 m 0
 34 351 121 461 236 461 c 0
 307 461 405 430 414 259 c 2
 414 230 l 1
 104 230 l 1
 106 179 125 105 154 74 c 0
 180 47 213 31 252 31 c 0
 320 31 367 59 404 86 c 1
 410 40 l 1
 367 11 315 -11 252 -11 c 0
 121 -11 34 102 34 226 c 0
109 265 m 1
 357 265 l 1
 341 377 265 419 236 419 c 0
 160 419 120 315 109 265 c 1
EndSplineSet
EndChar
StartChar: f
Encoding: 102 102 70
Width: 305
Flags: HMW
LayerCount: 2
Fore
SplineSet
27 406 m 1
 27 445 l 1
 101 445 l 1
 101 518 l 2
 101 526 100 534 100 542 c 0
 100 607 121 657 155 689 c 0
 185 718 225 733 268 733 c 0
 299 733 324 728 347 722 c 1
 347 655 l 1
 324 664 298 692 266 692 c 0
 245 692 218 686 199 668 c 0
 184 654 173 613 173 581 c 2
 173 445 l 1
 286 445 l 1
 286 406 l 1
 176 406 l 1
 176 0 l 1
 101 0 l 1
 101 406 l 1
 27 406 l 1
EndSplineSet
EndChar
StartChar: g
Encoding: 103 103 71
Width: 500
Flags: HMW
LayerCount: 2
Fore
SplineSet
132 292 m 0
 132 263 139 220 151 202 c 0
 167 179 192 167 222 167 c 0
 242 167 268 174 287 196 c 0
 301 212 311 257 311 293 c 0
 311 301 310 309 309 316 c 0
 305 343 294 384 278 398 c 0
 263 411 244 418 221 418 c 0
 203 418 180 413 162 396 c 0
 148 383 137 344 133 315 c 0
 132 308 132 300 132 292 c 0
77 -71 m 0
 77 -94 113 -132 136 -144 c 0
 163 -158 198 -166 228 -168 c 0
 235 -169 241 -169 247 -169 c 0
 294 -169 339 -158 368 -140 c 0
 388 -127 401 -91 401 -72 c 0
 401 -31 360 -3 252 -3 c 2
 189 -3 l 1
 140 -4 l 2
 99 -7 77 -43 77 -71 c 0
27 -71 m 0
 27 -30 52 9 91 32 c 1
 75 55 66 76 66 108 c 0
 66 140 77 168 95 192 c 1
 95 193 l 1
 65 233 62 272 62 292 c 0
 62 340 84 387 120 418 c 0
 147 441 181 455 221 455 c 0
 226 455 231 454 236 454 c 0
 265 451 289 442 316 424 c 1
 365 444 422 455 474 455 c 1
 485 412 l 1
 465 414 446 410 426 410 c 0
 403 410 368 392 348 391 c 1
 371 359 381 332 381 292 c 0
 381 248 363 206 333 176 c 0
 305 147 266 129 221 129 c 0
 165 129 133 158 130 159 c 0
 120 139 119 129 119 122 c 0
 119 98 131 69 175 69 c 2
 250 69 l 2
 288 69 344 68 390 49 c 0
 424 35 454 10 466 -33 c 0
 469 -45 471 -57 471 -70 c 0
 471 -115 438 -154 386 -178 c 0
 348 -196 301 -206 249 -206 c 0
 203 -206 160 -197 124 -183 c 0
 91 -170 65 -152 48 -130 c 0
 35 -112 27 -92 27 -71 c 0
EndSplineSet
EndChar
StartChar: h
Encoding: 104 104 72
Width: 517
Flags: HMW
LayerCount: 2
Fore
SplineSet
80 -0 m 1
 80 722 l 1
 155 722 l 1
 155 384 l 1
 188 422 230 455 299 455 c 0
 407 455 430 385 435 326 c 0
 436 312 436 299 436 288 c 2
 436 -0 l 1
 358 -0 l 1
 358 281 l 2
 358 340 347 414 260 414 c 0
 184 414 158 314 158 240 c 2
 158 -0 l 1
 80 -0 l 1
EndSplineSet
EndChar
StartChar: i
Encoding: 105 105 73
Width: 239
Flags: MW
LayerCount: 2
Fore
SplineSet
74 590 m 1
 74 679 l 1
 164 679 l 1
 164 590 l 1
 74 590 l 1
EndSplineSet
Refer: 95 305 N 1 0 0 1 0 0 2
EndChar
StartChar: o
Encoding: 111 111 79
Width: 500
Flags: HMW
LayerCount: 2
Fore
SplineSet
30 221 m 0
 30 336 114 461 249 461 c 0
 368 461 469 355 469 220 c 0
 469 84 363 -11 249 -11 c 0
 135 -11 30 84 30 221 c 0
108 231 m 0
 108 119 171 33 249 33 c 0
 316 33 390 106 390 231 c 0
 390 337 328 419 249 419 c 0
 185 419 108 352 108 231 c 0
EndSplineSet
EndChar
StartChar: p
Encoding: 112 112 80
Width: 517
Flags: HMW
LayerCount: 2
Fore
SplineSet
81 -195 m 1
 81 445 l 1
 156 445 l 1
 156 396 l 1
 178 414 201 426 222 435 c 0
 263 452 300 455 322 455 c 0
 368 455 407 428 435 386 c 0
 463 343 480 285 480 224 c 0
 480 157 458 94 420 50 c 0
 388 13 345 -11 294 -11 c 0
 258 -11 228 -1 202 14 c 0
 186 23 172 34 159 46 c 1
 159 -195 l 1
 81 -195 l 1
159 106 m 2
 159 92 172 69 194 52 c 0
 210 40 231 30 256 30 c 0
 292 30 330 48 358 80 c 0
 384 110 401 171 401 222 c 0
 401 233 401 244 399 254 c 0
 393 291 378 345 355 370 c 0
 332 395 301 411 265 411 c 0
 236 411 213 401 196 390 c 0
 172 374 160 354 159 354 c 1
 159 106 l 2
EndSplineSet
EndChar
StartChar: q
Encoding: 113 113 81
Width: 517
Flags: HMW
LayerCount: 2
Fore
SplineSet
35 221 m 0
 35 352 117 455 221 455 c 0
 286 455 329 421 358 388 c 1
 358 455 l 1
 434 455 l 1xf4
 434 -195 l 1
 355 -195 l 1
 355 50 l 1xf8
 316 14 264 -11 204 -11 c 0
 161 -11 123 10 94 44 c 0
 58 87 35 150 35 221 c 0
113 221 m 0
 113 170 132 103 161 72 c 0
 185 47 215 31 249 31 c 0
 303 31 358 75 358 118 c 2
 358 305 l 2
 358 334 330 412 258 412 c 0xf4
 223 412 178 392 148 352 c 0
 127 324 113 267 113 221 c 0
EndSplineSet
EndChar
StartChar: r
Encoding: 114 114 82
Width: 342
Flags: HMW
LayerCount: 2
Fore
SplineSet
81 0 m 1xd0
 81 450 l 1
 151 450 l 1
 151 404 l 1
 151 360 l 1xe0
 168 384 220 454 326 455 c 1
 326 408 l 1
 268 406 156 371 156 226 c 2xd0
 156 0 l 1
 81 0 l 1xd0
EndSplineSet
EndChar
StartChar: s
Encoding: 115 115 83
Width: 383
Flags: HMW
LayerCount: 2
Fore
SplineSet
27 34 m 1
 39 102 l 1
 82 77 121 32 196 32 c 0
 271 32 289 93 289 120 c 0
 289 159 253 178 233 184 c 0
 211 191 168 196 137 206 c 0
 110 214 78 232 56 260 c 0
 42 278 33 301 33 329 c 0
 33 363 44 407 88 435 c 0
 113 451 148 461 197 461 c 0
 253 461 289 453 343 430 c 1
 332 364 l 1
 292 383 260 421 188 421 c 0
 119 421 104 364 104 340 c 0
 104 267 216 278 273 252 c 0
 314 233 360 192 360 127 c 0
 360 93 349 49 310 20 c 0
 285 1 249 -11 197 -11 c 0
 163 -11 102 -7 27 34 c 1
EndSplineSet
EndChar
StartChar: t
Encoding: 116 116 84
Width: 361
Flags: HMW
LayerCount: 2
Fore
SplineSet
18 406 m 1
 18 445 l 1
 104 445 l 1
 104 571 l 1
 174 571 l 1
 174 445 l 1
 315 445 l 1
 315 406 l 1
 174 406 l 1
 174 140 l 2
 174 117 176 66 192 48 c 0
 200 39 211 33 228 33 c 0
 275 33 305 80 316 86 c 1
 332 27 l 1
 280 -1 228 -11 184 -11 c 0
 167 -11 146 -6 129 14 c 0
 114 33 102 64 102 117 c 2
 102 406 l 1
 18 406 l 1
EndSplineSet
EndChar
StartChar: u
Encoding: 117 117 85
Width: 517
Flags: HMW
LayerCount: 2
Fore
SplineSet
80 122 m 2
 80 445 l 1
 158 445 l 1
 158 90 l 2
 159 68 162 51 174 40 c 0
 186 30 205 25 238 25 c 0
 273 25 300 36 320 52 c 0
 342 70 354 94 357 116 c 0
 358 126 358 136 358 145 c 2
 358 445 l 1
 436 445 l 1
 436 -0 l 1
 360 -0 l 1
 360 28 l 1
 360 48 l 1
 340 30 316 17 292 8 c 0
 256 -6 217 -11 185 -11 c 0
 150 -11 127 -2 111 12 c 0
 80 40 80 87 80 122 c 2
EndSplineSet
EndChar
StartChar: v
Encoding: 118 118 86
Width: 461
Flags: HMW
LayerCount: 2
Fore
SplineSet
14 445 m 1
 91 445 l 1
 189 201 l 2
 226 97 237 81 242 50 c 1
 251 116 379 406 392 445 c 1
 446 445 l 1
 264 0 l 1
 196 0 l 1
 14 445 l 1
EndSplineSet
EndChar
StartChar: w
Encoding: 119 119 87
Width: 683
Flags: HMW
LayerCount: 2
Fore
SplineSet
14 445 m 1
 89 445 l 1
 193 114 190 90 197 50 c 1
 200 125 319 427 323 445 c 1
 384 445 l 1
 457 201 l 2
 487 96 491 81 495 50 c 1
 501 116 609 419 616 445 c 1
 669 445 l 1
 521 0 l 5
 444 0 l 1
 332 372 348 328 337 394 c 1
 333 315 216 24 211 0 c 1
 152 0 l 1
 14 445 l 1
EndSplineSet
EndChar
StartChar: x
Encoding: 120 120 88
Width: 461
Flags: HMW
LayerCount: 2
Fore
SplineSet
0 -0 m 1
 190 223 l 1
 190 225 l 1
 6 445 l 1
 89 445 l 1
 233 273 l 5
 234 273 l 5
 381 445 l 1
 444 445 l 1
 265 235 l 1
 265 234 l 1
 460 -0 l 1
 377 -0 l 1
 222 186 l 1
 63 0 l 1
 0 -0 l 1
EndSplineSet
EndChar
StartChar: y
Encoding: 121 121 89
Width: 461
Flags: HMW
LayerCount: 2
Fore
SplineSet
14 445 m 1
 93 445 l 1
 244 98 232 95 244 40 c 1
 246 131 386 427 391 445 c 1
 446 445 l 1
 229 -90 l 2
 207 -140 189 -169 169 -186 c 0
 152 -200 135 -205 114 -205 c 0
 95 -205 65 -203 41 -197 c 1
 36 -132 l 1
 69 -143 92 -169 109 -169 c 0
 123 -169 134 -165 144 -155 c 0
 161 -138 185 -105 211 -37 c 0
 214 -30 215 -25 215 -21 c 0
 215 -16 213 -12 210 -4 c 2
 14 445 l 1
EndSplineSet
EndChar
StartChar: z
Encoding: 122 122 90
Width: 435
Flags: HMW
LayerCount: 2
Fore
SplineSet
27 0 m 1
 27 41 l 1
 308 406 l 1
 41 405 l 1
 41 445 l 1
 398 445 l 1
 398 405 l 1
 118 42 l 1
 401 43 l 1
 401 0 l 1
 27 0 l 1
EndSplineSet
EndChar
StartChar: braceleft
Encoding: 123 123 91
Width: 500
Flags: HMW
LayerCount: 2
Fore
SplineSet
52 219 m 1
 52 281 l 1
 113 281 182 306 204 363 c 0
 207 371 209 380 210 389 c 2
 210 619 l 2
 211 641 209 653 220 674 c 0
 234 703 261 723 296 735 c 0
 324 745 358 750 393 750 c 2
 446 750 l 1
 446 709 l 1
 422 709 l 2
 292 709 288 655 288 621 c 2
 288 410 l 2
 288 387 284 367 278 350 c 0
 250 275 168 255 127 251 c 9
 127 250 l 17
 170 247 258 225 282 138 c 0
 286 124 288 108 288 90 c 2
 288 -125 l 2
 288 -163 307 -209 422 -209 c 0
 446 -209 l 1
 446 -250 l 1
 401 -250 l 2
 365 -250 325 -249 282 -229 c 0
 201 -192 212 -133 210 -119 c 1
 210 88 l 2
 210 109 210 121 203 140 c 0
 180 192 116 219 52 219 c 1
EndSplineSet
EndChar
StartChar: guillemotright
Encoding: 187 187 121
Width: 667
Flags: MW
LayerCount: 2
Fore
SplineSet
100 0 m 5
 315 220 l 5
 100 439 l 5
 165 439 l 5
 389 219 l 5
 165 0 l 5
 100 0 l 5
266 0 m 5
 482 220 l 5
 266 439 l 5
 331 439 l 5
 555 219 l 5
 331 0 l 5
 266 0 l 5
EndSplineSet
EndChar
StartChar: Agrave
Encoding: 192 192 153
Width: 667
Flags: HMW
LayerCount: 2
Fore
SplineSet
165.553710938 850 m 1
 276.553710938 850 l 25
 433.553710938 760 l 1
 355.553710938 760 l 25
 345.553710938 761 l 1
 334.553710938 765 l 1
 165.553710938 850 l 1
EndSplineSet
Refer: 33 65 N 1 0 0 1 0 0 3
EndChar
StartChar: Aacute
Encoding: 193 193 154
Width: 667
Flags: HMW
LayerCount: 2
Fore
SplineSet
182.553710938 760 m 1
 339.553710938 850 l 25
 449.553710938 850 l 1
 291.553710938 771 l 1
 269.553710938 761 l 1
 254.553710938 760 l 1
 206.553710938 760 l 1
 182.553710938 760 l 1
EndSplineSet
Refer: 33 65 N 1 0 0 1 0 0 2
EndChar
StartChar: Acircumflex
Encoding: 194 194 155
Width: 667
Flags: HMW
LayerCount: 2
Fore
SplineSet
145.553710938 727 m 1
 269.553710938 900 l 1
 345.553710938 900 l 1
 456.553710938 727 l 1
 394.553710938 727 l 1
 300.553710938 849 l 1
 207.553710938 727 l 1
 145.553710938 727 l 1
EndSplineSet
Refer: 33 65 N 1 0 0 1 0 0 2
EndChar
StartChar: Atilde
Encoding: 195 195 156
Width: 667
Flags: HMW
LayerCount: 2
Fore
SplineSet
139.553710938 774 m 1
 141.553710938 848 189.553710938 889 237.553710938 889 c 0xde
 289.553710938 889 326.553710938 836 371.553710938 836 c 0xee
 377.553710938 836 383.553710938 837 388.553710938 840 c 0
 402.553710938 847 410.553710938 865 411.553710938 889 c 1
 472.553710938 889 l 1xde
 469.553710938 815 422.553710938 775 374.553710938 775 c 0xee
 322.553710938 775 285.553710938 828 241.553710938 828 c 0xde
 235.553710938 828 231.553710938 827 226.553710938 825 c 0
 211.553710938 818 202.553710938 800 200.553710938 774 c 1
 139.553710938 774 l 1
EndSplineSet
Refer: 33 65 N 1 0 0 1 0 0 2
EndChar
StartChar: Adieresis
Encoding: 196 196 157
Width: 667
Flags: HMW
LayerCount: 2
Fore
SplineSet
165.553710938 760 m 1
 165.553710938 849 l 1
 255.553710938 849 l 1
 255.553710938 760 l 1
 165.553710938 760 l 1
360.553710938 760 m 1
 360.553710938 849 l 1
 450.553710938 849 l 1
 450.553710938 760 l 1
 360.553710938 760 l 1
EndSplineSet
Refer: 33 65 N 1 0 0 1 0 0 2
EndChar
StartChar: Aring
Encoding: 197 197 158
Width: 667
Flags: HMW
LayerCount: 2
Fore
SplineSet
187.553710938 777 m 0
 187.553710938 842 241.553710938 888 298.553710938 888 c 0
 362.553710938 888 409.553710938 836 409.553710938 777 c 0
 409.553710938 720 364.553710938 666 298.553710938 666 c 0
 233.553710938 666 187.553710938 719 187.553710938 777 c 0
243.553710938 777 m 0
 243.553710938 764 247.553710938 749 258.553710938 739 c 0
 266.553710938 732 277.553710938 728 294.553710938 727 c 0
 295.553710938 727 297.553710938 727 298.553710938 727 c 0
 319.553710938 727 333.553710938 733 341.553710938 742 c 0
 350.553710938 752 353.553710938 765 353.553710938 777 c 0
 353.553710938 789 350.553710938 803 340.553710938 813 c 0
 332.553710938 821 319.553710938 827 299.553710938 827 c 0xdf
 298.553710938 827 296.553710938 827 295.553710938 827 c 0
 274.553710938 826 261.553710938 819 253.553710938 809 c 0
 246.553710938 800 243.553710938 788 243.553710938 777 c 0
EndSplineSet
Refer: 33 65 N 1 0 0 1 0 0 2
EndChar
StartChar: Eacute
Encoding: 201 201 161
Width: 597
Flags: HMW
LayerCount: 2
Fore
SplineSet
200 760 m 1
 357 850 l 25
 467 850 l 1
 309 771 l 1
 287 761 l 1
 272 760 l 1
 224 760 l 1
 200 760 l 1
EndSplineSet
Refer: 37 69 N 1 0 0 1 0 0 2
EndChar
StartChar: Iacute
Encoding: 205 205 165
Width: 278
Flags: MW
LayerCount: 2
Fore
SplineSet
54 760 m 1
 211 850 l 25
 321 850 l 1
 163 771 l 1
 141 761 l 1
 126 760 l 1
 78 760 l 1
 54 760 l 1
EndSplineSet
Refer: 41 73 N 1 0 0 1 0 0 2
EndChar
StartChar: Idieresis
Encoding: 207 207 167
Width: 278
Flags: MW
LayerCount: 2
Fore
SplineSet
-3 760 m 1
 -3 849 l 1
 87 849 l 1
 87 760 l 1
 -3 760 l 1
191 760 m 1
 191 849 l 1
 281 849 l 1
 281 760 l 1
 191 760 l 1
EndSplineSet
Refer: 41 73 N 1 0 0 1 0 0 2
EndChar
StartChar: Oacute
Encoding: 211 211 171
Width: 736
Flags: HMW
LayerCount: 2
Fore
SplineSet
242 760 m 1
 399 850 l 25
 509 850 l 1
 351 771 l 1
 329 761 l 1
 314 760 l 1
 266 760 l 1
 242 760 l 1
EndSplineSet
Refer: 47 79 N 1 0 0 1 0 0 2
EndChar
StartChar: multiply
Encoding: 215 215 175
Width: 778
Flags: MW
LayerCount: 2
Fore
SplineSet
148 28 m 0
 148 41 163 52 172 61 c 2
 360 250 l 1
 171 439 l 2
 161 449 158 452 148 467 c 1
 148 473 l 2
 148 478 153 486 160 489 c 0
 162 490 164 490 167 490 c 0
 179 490 187 480 197 470 c 2
 389 278 l 1
 581 471 l 2
 591 480 598 490 610 490 c 0
 625 490 629 476 629 472 c 0
 629 470 628 469 628 466 c 1
 623 455 614 447 606 439 c 2
 417 250 l 1
 606 61 l 2
 618 49 626 40 628 33 c 1
 629 27 l 1
 629 18 620 10 610 10 c 0
 598 10 590 20 581 30 c 2
 388 222 l 1
 188 21 l 2
 178 13 175 9 166 9 c 0
 158 9 148 19 148 28 c 0
EndSplineSet
EndChar
StartChar: Udieresis
Encoding: 220 220 179
Width: 687
Flags: HMW
LayerCount: 2
Fore
SplineSet
201 760 m 1
 201 849 l 1
 291 849 l 1
 291 760 l 1
 201 760 l 1
396 760 m 1
 396 849 l 1
 486 849 l 1
 486 760 l 1
 396 760 l 1
EndSplineSet
Refer: 53 85 N 1 0 0 1 0 0 2
EndChar
StartChar: icircumflex
Encoding: 238 238 195
Width: 239
Flags: MW
LayerCount: 2
Fore
SplineSet
-36 509 m 1
 89 650 l 1
 150 650 l 1
 275 509 l 1
 214 509 l 1
 120 608 l 1
 118 608 l 1
 25 509 l 1
 -36 509 l 1
EndSplineSet
Refer: 95 305 N 1 0 0 1 1 0 2
EndChar
StartChar: Amacron
Encoding: 256 256 347
Width: 667
Flags: HMW
LayerCount: 2
Fore
SplineSet
3.5537109375 786 m 4
 3.5537109375 808 26.5537109375 806 37.5537109375 806 c 6
 579.553710938 806 l 6
 590.553710938 806 612.553710938 808 612.553710938 786 c 4
 612.553710938 778 608.553710938 766 584.553710938 766 c 6
 37.5537109375 766 l 6
 24.5537109375 766 3.5537109375 766 3.5537109375 786 c 4
EndSplineSet
Refer: 33 65 N 1 0 0 1 0 0 3
EndChar
StartChar: Abreve
Encoding: 258 258 476
Width: 667
Flags: HMW
LayerCount: 2
Fore
SplineSet
131.553710938 889 m 1
 192.553710938 889 l 1
 196.553710938 822 253.553710938 794 300.553710938 794 c 0
 354.553710938 794 405.553710938 828 408.553710938 889 c 1
 470.553710938 889 l 1
 467.553710938 789 386.553710938 727 300.553710938 727 c 0
 212.553710938 727 133.553710938 790 131.553710938 889 c 1
EndSplineSet
Refer: 33 65 S 1 0 0 1 0 0 2
EndChar
StartChar: Aogonek
Encoding: 260 260 457
Width: 667
Flags: HMW
LayerCount: 2
Fore
SplineSet
584.553710938 0 m 1
 579.553710938 -3 494.553710938 -49 494.553710938 -107 c 0
 494.553710938 -113 495.553710938 -117 497.553710938 -122 c 0
 498.553710938 -125 500.553710938 -128 502.553710938 -130 c 0
 511.553710938 -141 526.553710938 -147 545.553710938 -147 c 0
 571.553710938 -147 597.553710938 -137 612.553710938 -133 c 1
 628.553710938 -192 l 1
 574.553710938 -217 540.553710938 -217 531.553710938 -217 c 0
 473.553710938 -217 434.553710938 -181 434.553710938 -128 c 0
 434.553710938 -77 472.553710938 -29 519.553710938 0 c 1
 584.553710938 0 l 1
EndSplineSet
Refer: 33 65 N 1 0 0 1 0 0 2
EndChar
StartChar: Eogonek
Encoding: 280 280 480
Width: 597
Flags: HMW
LayerCount: 2
Fore
SplineSet
491 0 m 1
 486 -3 401 -49 401 -107 c 0
 401 -113 402 -117 404 -122 c 0
 405 -125 407 -128 409 -130 c 0
 418 -141 433 -147 452 -147 c 0
 478 -147 504 -137 519 -133 c 1
 535 -192 l 1
 481 -217 447 -217 438 -217 c 0
 380 -217 341 -181 341 -128 c 0
 341 -77 379 -29 426 0 c 1
 491 0 l 1
EndSplineSet
Refer: 37 69 N 1 0 0 1 0 0 2
EndChar
StartChar: Lacute
Encoding: 313 313 477
Width: 542
Flags: HMW
LayerCount: 2
Fore
SplineSet
207 760 m 1
 364 850 l 25
 474 850 l 1
 316 771 l 1
 294 761 l 1
 279 760 l 1
 231 760 l 1
 207 760 l 1
EndSplineSet
Refer: 44 76 N 1 0 0 1 0 0 2
EndChar
StartChar: Ncommaaccent
Encoding: 325 325 540
Width: 708
Flags: HMW
LayerCount: 2
Fore
SplineSet
310 -48 m 1
 368 -48 l 1
 368 -97 l 2
 363 -134 348 -161 339 -194 c 1
 310 -194 l 1
 328 -107 l 1
 310 -107 l 1
 310 -48 l 1
EndSplineSet
Refer: 46 78 N 1 0 0 1 0 0 2
EndChar
StartChar: Racute
Encoding: 340 340 475
Width: 646
Flags: HMW
LayerCount: 2
Fore
SplineSet
183 760 m 1
 340 850 l 25
 450 850 l 1
 292 771 l 1
 270 761 l 1
 255 760 l 1
 207 760 l 1
 183 760 l 1
EndSplineSet
Refer: 50 82 N 1 0 0 1 0 0 2
EndChar
StartChar: Tcaron
Encoding: 356 356 462
Width: 680
Flags: HMW
LayerCount: 2
Fore
SplineSet
181 889 m 1
 242 889 l 1
 340 778 l 1
 436 889 l 1
 498 889 l 1xf0
 375 727 l 1
 304 727 l 1
 181 889 l 1
EndSplineSet
Refer: 52 84 S 1 0 0 1 0 0 2
EndChar
StartChar: Acaron
Encoding: 461 461 352
Width: 667
Flags: HMW
LayerCount: 2
Fore
SplineSet
148.553710938 889 m 1
 209.553710938 889 l 1
 306.553710938 778 l 1
 403.553710938 889 l 1
 464.553710938 889 l 1
 342.553710938 727 l 1
 270.553710938 727 l 1
 148.553710938 889 l 1
EndSplineSet
Refer: 33 65 N 1 0 0 1 0 0 3
EndChar
StartChar: srthook
Encoding: 642 642 573
Width: 383
Flags: MW
LayerCount: 2
Fore
SplineSet
27 -56 m 2
 27 22 l 1
 27 22 l 1
 27 104 l 1xf4
 76 74 127 52 196 52 c 0
 231 52 254 61 268 73 c 0
 284 87 289 106 289 120 c 0
 289 159 253 178 233 184 c 0
 211 191 168 196 137 206 c 0
 109 214 74 233 53 264 c 0
 41 282 33 303 33 329 c 0
 33 359 42 397 74 425 c 0
 99 446 138 461 197 461 c 0
 253 461 289 453 344 430 c 1
 332 364 l 1
 293 383 260 401 188 401 c 0
 160 401 141 395 128 386 c 0
 109 373 104 354 104 340 c 0xec
 104 308 131 290 152 282 c 0
 172 276 224 269 254 259 c 0
 293 247 360 207 360 127 c 0
 360 94 350 50 312 21 c 0
 287 2 250 -11 196 -11 c 0
 153 -11 120 -3 90 6 c 1
 90 -65 l 2
 90 -100 98 -122 109 -135 c 0
 122 -151 139 -155 153 -155 c 0
 206 -155 219 -101 221 -100 c 1
 244 -162 l 1
 226 -189 207 -217 151 -217 c 0xf4
 108 -217 79 -201 61 -179 c 4
 30 -141 27 -85 27 -56 c 2
EndSplineSet
EndChar
StartChar: glottalstopstroke
Encoding: 673 673 608
Width: 500
Flags: MW
LayerCount: 2
Fore
SplineSet
55 649 m 1
 108 684 164 705 237 705 c 0
 401 705 444 602 444 523 c 0
 444 417 343 371 274 352 c 1
 274 245 l 1
 412 245 l 1
 412 186 l 1
 274 186 l 1
 274 -0 l 1
 195 -0 l 1
 195 186 l 1
 56 186 l 1
 56 245 l 1
 195 245 l 1
 195 399 l 1
 239 405 365 422 365 525 c 0
 365 620 303 644 236 644 c 0
 235 644 233 644 232 644 c 4
 171 643 126 623 78 585 c 1
 55 649 l 1
EndSplineSet
EndChar
StartChar: commaturnedmod
Encoding: 699 699 97
Width: 278
Flags: MW
LayerCount: 2
Fore
SplineSet
96 486 m 1
 96 555 l 1
 97 570 l 1
 138 695 l 1
 180 695 l 1
 154 570 l 1
 180 570 l 1
 180 486 l 1
 96 486 l 1
EndSplineSet
EndChar
StartChar: ring
Encoding: 730 730 127
Width: 667
Flags: MW
LayerCount: 2
Fore
SplineSet
221 558 m 0
 221 576 230 596 248 611 c 0
 267 628 296 639 332 639 c 0
 334 639 335 639 337 639 c 0
 362 638 385 631 403 620 c 0
 427 605 443 583 443 557 c 0
 443 536 430 513 407 497 c 0
 388 484 363 476 332 476 c 0
 330 476 328 476 326 476 c 0
 294 477 269 487 252 501 c 0
 231 518 221 540 221 558 c 0
277 557 m 0
 277 547 280 534 290 524 c 0
 298 516 310 510 328 509 c 0
 329 509 331 509 332 509 c 0
 354 509 368 516 376 526 c 0
 384 536 387 548 387 558 c 0
 387 570 383 585 370 595 c 4
 362 602 349 606 332 606 c 0
 331 606 329 606 328 606 c 0
 311 605 297 599 288 589 c 0
 281 581 277 570 277 557 c 0
EndSplineSet
EndChar
StartChar: ringhalfrightbelowcmb
Encoding: 825 825 688
Width: 0
Flags: MW
LayerCount: 2
Fore
SplineSet
-235 -340 m 5
 -235 -279 l 5
 -163 -275 -143 -225 -143 -198 c 4
 -143 -167 -168 -121 -235 -118 c 5
 -235 -57 l 5
 -149 -59 -82 -118 -82 -198 c 4
 -82 -265 -135 -337 -235 -340 c 5
EndSplineSet
EndChar
StartChar: breveinverteddoublecmb
Encoding: 865 865 677
Width: 0
Flags: MW
LayerCount: 2
Fore
SplineSet
-215 477 m 1
 -212 571 -104 639 31 639 c 0
 144 639 275 586 279 477 c 1
 201 477 l 1
 195 544 108 575 33 575 c 0
 -29 575 -131 552 -137 477 c 1
 -215 477 l 1
EndSplineSet
EndChar
StartChar: dieresistonos
Encoding: 901 901 516
Width: 278
Flags: MW
LayerCount: 2
Fore
SplineSet
74 495 m 1
 165 694 l 1
 244 694 l 1
 135 495 l 1
 74 495 l 1
12 507 m 1
 12 569 l 1
 73 569 l 1
 73 507 l 1
 12 507 l 1
203 507 m 1
 203 569 l 1
 265 569 l 1
 265 507 l 1
 203 507 l 1
EndSplineSet
EndChar
StartChar: zeta
Encoding: 950 950 252
Width: 472
Flags: MW
LayerCount: 2
Fore
SplineSet
41 223 m 0xf4
 41 401 157 535 222 602 c 1
 135 602 58 644 55 737 c 1
 133 737 l 1xec
 137 681 181 672 213 672 c 0
 285 672 351 718 378 737 c 1
 425 674 l 1
 300 579 119 426 119 222 c 0
 119 157 154 91 218 80 c 0
 227 78 429 85 429 -39 c 0
 429 -107 354 -153 235 -153 c 1
 235 -78 l 1
 263 -78 351 -83 350 -37 c 5
 346 -13 329 0 245 -0 c 0xf4
 103 0 41 119 41 223 c 0xf4
EndSplineSet
EndChar
StartChar: sigma
Encoding: 963 963 264
Width: 569
Flags: MW
LayerCount: 2
Fore
SplineSet
41 217 m 0
 41 355 145 445 276 445 c 6
 540 445 l 1
 540 366 l 1
 430 366 l 1
 463 326 484 277 484 217 c 0
 484 92 386 -11 263 -11 c 0
 144 -11 41 87 41 217 c 0
119 217 m 0
 119 140 177 67 263 67 c 0
 345 67 406 137 406 216 c 0
 406 293 348 366 262 366 c 0
 180 366 119 296 119 217 c 0
EndSplineSet
EndChar
StartChar: psi
Encoding: 968 968 269
Width: 583
Flags: MW
LayerCount: 2
Fore
SplineSet
41 270 m 0
 41 336 54 396 69 445 c 1
 147 445 l 1
 122 393 103 339 103 269 c 0
 103 167 162 76 256 55 c 1
 256 722 l 1
 326 722 l 1
 326 55 l 1
 419 76 478 167 478 269 c 0
 478 339 459 393 434 445 c 1
 512 445 l 1
 527 396 540 336 540 270 c 0
 540 129 452 12 326 -8 c 1
 326 -195 l 1
 256 -195 l 1
 256 -8 l 1
 143 10 41 114 41 270 c 0
EndSplineSet
EndChar
StartChar: Ze
Encoding: 1047 1047 279
Width: 611
Flags: MW
LayerCount: 2
Fore
SplineSet
50 77 m 1
 85 138 l 1
 138 78 174 34 301 34 c 0
 408 34 487 101 487 181 c 0xe8
 487 238 442 330 289 330 c 2
 194 330 l 1
 194 392 l 1
 262 392 l 2
 357 392 462 426 462 529 c 0
 462 640 380 660 305 660 c 0
 175 660 128 592 99 563 c 1
 61 630 l 1
 133 687 197 716 307 716 c 0
 433 716 541 681 541 530 c 0xf0
 541 496 529 406 365 363 c 1
 503 340 569 255 569 181 c 0
 569 82 470 -22 300 -22 c 0
 186 -22 137 -1 50 77 c 1
EndSplineSet
EndChar
StartChar: i.short
Encoding: 1081 1081 314
Width: 537
Flags: MW
LayerCount: 2
Fore
SplineSet
98 639 m 1
 160 639 l 1
 165 575 240 567 268 567 c 0xec
 296 567 370 575 376 639 c 1
 437 639 l 1
 434 547 348 500 268 500 c 0
 187 500 101 547 98 639 c 1
EndSplineSet
Refer: 313 1080 S 1 0 0 1 0 0 2
EndChar
StartChar: Macute
Encoding: 7742 7742 449
Width: 875
Flags: HMW
LayerCount: 2
Fore
SplineSet
303 766 m 1
 460 856 l 25
 570 856 l 1
 412 777 l 1
 390 767 l 1
 375 766 l 1
 327 766 l 1
 303 766 l 1
EndSplineSet
Refer: 45 77 N 1 0 0 1 0 0 3
EndChar
StartChar: dagger
Encoding: 8224 8224 114
Width: 444
Flags: MW
LayerCount: 2
Fore
SplineSet
55 444 m 0
 55 458 64 483 97 483 c 0
 133 483 154 475 198 470 c 1
 189 600 183 644 183 687 c 0
 183 727 209 733 222 733 c 0
 237 733 261 725 261 688 c 0
 261 660 246 470 246 470 c 1
 279 473 320 484 346 484 c 0
 380 484 388 458 388 445 c 0
 388 430 380 405 346 405 c 0
 326 405 256 418 246 419 c 1
 252 356 261 297 261 229 c 2
 261 -217 l 1
 183 -217 l 1
 183 239 l 2
 183 269 184 304 197 419 c 1
 164 414 113 405 98 405 c 0
 64 405 55 431 55 444 c 0
EndSplineSet
EndChar
StartChar: bullet
Encoding: 8226 8226 117
Width: 500
Flags: MW
LayerCount: 2
Fore
SplineSet
55 250 m 0
 55 353 137 444 249 444 c 0
 360 444 443 354 443 250 c 0
 443 147 361 56 249 56 c 0
 138 56 55 146 55 250 c 0
EndSplineSet
EndChar
StartChar: guilsinglleft
Encoding: 8249 8249 109
Width: 444
Flags: MW
LayerCount: 2
Fore
SplineSet
110 220 m 1
 271 439 l 1
 332 439 l 1
 188 219 l 1
 332 -0 l 1
 271 -0 l 1
 110 220 l 1
EndSplineSet
EndChar
StartChar: undertie
Encoding: 8255 8255 785
Width: 500
Flags: MW
LayerCount: 2
Fore
SplineSet
0 -52 m 4
 0 -47 4 -43 9 -43 c 0
 13 -43 17 -46 20 -49 c 0
 65 -94 170 -124 249 -124 c 0
 352 -124 415 -92 476 -51 c 0
 481 -48 486 -43 491 -43 c 0
 497 -43 500 -48 500 -54 c 0
 500 -101 346 -164 251 -164 c 0
 156 -164 0 -107 0 -52 c 4
EndSplineSet
EndChar
StartChar: zero.superior
Encoding: 8304 8304 636
Width: 444
Flags: MW
LayerCount: 2
Fore
SplineSet
35 557 m 5
 35 561 35 569 35 573 c 5
 36 638 46 735 161 762 c 4
 178 766 198 768 221 768 c 4
 267 768 315 758 347 733 c 4
 402 691 407 618 408 577 c 5
 408 573 408 567 408 564 c 5
 408 466 385 387 280 364 c 4
 263 360 245 359 221 359 c 4
 92 359 35 430 35 557 c 5
126 559 m 5
 126 466 146 432 186 418 c 4
 197 414 210 413 222 413 c 4
 233 413 254 416 273 427 c 4
 305 447 316 485 317 561 c 5
 317 564 317 582 317 586 c 5
 317 631 308 669 291 687 c 4
 274 705 247 713 221 713 c 4
 159 713 126 673 126 587 c 5
 126 583 126 563 126 559 c 5
EndSplineSet
EndChar
StartChar: threeeighths
Encoding: 8540 8540 654
Width: 444
Flags: MW
LayerCount: 2
Fore
SplineSet
36 -55 m 4
 36 -11 70 28 148 45 c 5
 106 55 49 79 49 130 c 4
 49 184 102 234 221 234 c 5
 222 234 223 234 224 234 c 5
 340 233 394 185 394 130 c 4
 394 77 333 55 295 45 c 5
 359 33 406 -3 406 -55 c 4
 406 -117 348 -175 221 -175 c 4
 94 -175 36 -117 36 -55 c 4
130 -57 m 5
 130 -80 137 -100 159 -111 c 4
 173 -119 194 -123 221 -123 c 4
 245 -123 265 -119 281 -111 c 4
 306 -99 313 -77 313 -55 c 5
 313 -53 312 -44 312 -42 c 5
 309 -23 302 -6 285 4 c 4
 270 14 249 17 221 17 c 4
 197 17 176 14 161 5 c 4
 139 -7 133 -27 130 -45 c 5
 130 -47 130 -55 130 -57 c 5
132 126 m 5
 132 107 141 93 157 83 c 4
 172 74 193 71 220 71 c 4
 248 71 270 75 284 83 c 4
 303 93 310 109 310 126 c 5
 310 129 310 136 309 138 c 5
 306 153 299 165 285 173 c 4
 271 182 250 186 222 186 c 4
 195 186 173 182 159 174 c 4
 140 164 135 150 133 135 c 5
 133 134 132 128 132 126 c 5
41 345 m 1
 50 412 l 1
 82 402 116 391 155 386 c 0
 174 383 194 382 216 382 c 0xe8
 255 382 279 392 293 406 c 0
 308 420 312 437 312 449 c 0xe8
 312 473 295 491 281 500 c 0
 259 514 233 515 207 515 c 2
 166 515 l 1
 166 583 l 1
 207 587 243 586 272 614 c 0
 283 626 291 641 291 658 c 0
 291 677 277 708 219 708 c 0
 160 708 121 681 88 652 c 1
 55 712 l 1
 100 748 154 772 219 772 c 0
 305 772 374 722 374 658 c 0xf0
 374 582 305 551 303 548 c 1
 337 537 401 506 401 448 c 0
 401 414 380 374 337 347 c 0
 308 328 268 315 218 315 c 0
 198 315 178 317 157 319 c 0
 122 323 84 331 41 345 c 1
8 280 m 1
 10 286 13 290 16 293 c 0
 22 298 29 298 35 298 c 2
 48 298 l 1
 404 298 l 2
 413 298 420 298 425 295 c 0
 429 293 432 289 434 283 c 1
 434 281 434 280 434 278 c 0
 434 272 433 267 428 263 c 0
 424 260 417 258 407 258 c 2
 36 258 l 2
 25 258 18 260 14 263 c 0
 7 268 9 277 8 280 c 1
EndSplineSet
EndChar
StartChar: element
Encoding: 8712 8712 759
Width: 778
Flags: W
LayerCount: 2
Fore
SplineSet
83 250 m 0
 83 417 218 552 385 552 c 2
 653 552 l 2
 678 552 693 538.91796875 693 521 c 0
 693 502.896484375 678 491 656 491 c 2
 385 491 l 2
 262.158163519 491 160.643305373 398.867453597 145.853064767 280 c 1
 655 280 l 2
 666 280 675 277 681 274 c 0
 692 267 693 257 693 250 c 0
 693 243 692 234 683 227 c 0
 677 222 667 219 653 219 c 2
 145.979616947 219 l 1
 161.213178512 100.616220502 262.502860031 9 385 9 c 2
 655 9 l 2
 678 9 693 -4.275390625 693 -21 c 0
 693 -40.4169921875 677 -52 652 -52 c 2
 385 -52 l 2
 218 -52 83 83 83 250 c 0
EndSplineSet
EndChar
StartChar: notelement
Encoding: 8713 8713 761
Width: 778
Flags: W
LayerCount: 2
Fore
SplineSet
83 250 m 0
 83 417 218 552 385 552 c 2
 491 552 l 1
 516 625 l 2
 520 636 526 654 548 654 c 0
 563 654 578 643 578 624 c 0
 578 616 574 605 571 596 c 2
 556 552 l 1
 653 552 l 2
 678 552 693 539 693 521 c 0
 693 503 678 491 656 491 c 2
 535 491 l 1
 461.303534304 280 l 1
 655 280 l 2
 666 280 675 277 681 274 c 0
 692 267 693 257 693 250 c 0
 693 243 692 234 683 227 c 0
 677 222 667 219 653 219 c 2
 439.997920998 219 l 1
 367 10 l 1
 373 10 379 9 385 9 c 2
 655 9 l 2
 678 9 693 -4 693 -21 c 0
 693 -40 677 -52 652 -52 c 2
 385 -52 l 2
 372 -52 359 -52 347 -50 c 1
 312 -150 l 2
 306 -168 296 -180 280 -180 c 0
 264 -180 250 -166 250 -149 c 0
 250 -140 255 -127 259 -116 c 2
 287 -36 l 1
 168 5 83 117 83 250 c 0
145.96334763 219 m 1
 157.742060313 126.732443305 221.414028494 50.8289588229 307 22 c 1
 375.466950959 219 l 1
 145.96334763 219 l 1
145.853064767 280 m 1
 396.667377399 280 l 1
 470 491 l 1
 385 491 l 2
 262.158163519 491 160.643305373 398.867453597 145.853064767 280 c 1
EndSplineSet
EndChar
StartChar: angle
Encoding: 8736 8736 745
Width: 778
Flags: W
LayerCount: 2
Fore
SplineSet
106 -25 m 0
 106 -11 113 -4 118 4 c 2
 423 534 l 2
 431 548 444 555 455 555 c 0
 472 555 482 542 482 527 c 0
 482 519 480 510 475 501 c 2
 189 6 l 1
 633 6 l 2
 656 6 671 -7 671 -24 c 0
 671 -43 655 -55 630 -55 c 2
 135 -55 l 2
 118 -55 106 -41 106 -25 c 0
EndSplineSet
EndChar
StartChar: logicalor
Encoding: 8744 8744 744
Width: 778
Flags: W
LayerCount: 2
Fore
SplineSet
111 555 m 0
 133 555 141 534 148 520 c 2
 389 43 l 1
 398 60 409 83 420 104 c 2
 630 520 l 2
 637 534 645 555 667 555 c 0
 682 555 697 542 697 524 c 0
 697 513 687 497 681 485 c 2
 425 -22 l 6
 411 -50 397 -55 389 -55 c 3
 373 -55 368 -51 353 -22 c 2
 88 503 l 2
 84 510 81 517 81 524 c 0
 81 542 96 555 111 555 c 0
EndSplineSet
EndChar
StartChar: intersection
Encoding: 8745 8745 757
Width: 778
Flags: W
LayerCount: 2
Fore
SplineSet
389 555 m 0
 556 555 691 420 691 253 c 2
 691 -15 l 2
 691 -40 678 -55 660 -55 c 0
 642 -55 630 -40 630 -18 c 2
 630 253 l 2
 630 386 522 494 389 494 c 0
 256 494 148 386 148 253 c 2
 148 -17 l 2
 148 -40 135 -55 118 -55 c 0
 99 -55 87 -39 87 -14 c 2
 87 253 l 2
 87 420 222 555 389 555 c 0
EndSplineSet
EndChar
StartChar: therefore
Encoding: 8756 8756 721
Width: 639
Flags: W
LayerCount: 2
Fore
SplineSet
457 0 m 1
 457 84 l 1
 541 84 l 1
 541 0 l 1
 457 0 l 1
276 361 m 1
 276 445 l 1
 360 445 l 1
 360 361 l 1
 276 361 l 1
96 0 m 1
 96 84 l 1
 180 84 l 1
 180 0 l 1
 96 0 l 1
EndSplineSet
EndChar
StartChar: because
Encoding: 8757 8757 722
Width: 639
Flags: W
LayerCount: 2
Fore
SplineSet
457 361 m 1
 457 445 l 1
 541 445 l 1
 541 361 l 1
 457 361 l 1
96 361 m 1
 96 445 l 1
 180 445 l 1
 180 361 l 1
 96 361 l 1
276 0 m 1
 276 84 l 1
 360 84 l 1
 360 0 l 1
 276 0 l 1
EndSplineSet
EndChar
StartChar: approxequal
Encoding: 8776 8776 740
Width: 778
Flags: W
LayerCount: 2
Fore
SplineSet
58 94 m 1xb0
 61 169 190 213 255 213 c 0x70
 323 213 450 156 514 156 c 0xb0
 548 156 647 175 651 213 c 1
 712 213 l 1x70
 709 139 580 94 515 94 c 0xb0
 447 94 320 152 256 152 c 0x70
 222 152 123 132 119 94 c 1
 58 94 l 1xb0
58 319 m 1xb0
 61 394 190 438 255 438 c 0x70
 323 438 450 381 514 381 c 0xb0
 548 381 647 400 651 438 c 1
 712 438 l 1x70
 709 364 580 319 515 319 c 0xb0
 447 319 320 377 256 377 c 0x70
 222 377 123 357 119 319 c 1
 58 319 l 1xb0
EndSplineSet
EndChar
StartChar: lessequal
Encoding: 8804 8804 662
Width: 777
Flags: MW
LayerCount: 2
Fore
SplineSet
83 300 m 1
 86 316 88 321 117 336 c 2
 643 552 l 2
 649 555 656 558 663 558 c 0
 681 558 693 543 693 528 c 0
 693 506 674 497 659 491 c 2
 182 300 l 1
 201 291 227 281 244 275 c 2
 659 109 l 2
 673 102 693 94 693 72 c 0
 693 56 680 42 663 42 c 0
 652 42 636 52 624 58 c 2
 117 264 l 2
 77 280 86 292 83 300 c 1
56 -46 m 0
 56 -29 69 -15 92 -15 c 0
 95 -15 99 -16 102 -16 c 2
 683 -16 l 2
 706 -16 721 -29 721 -46 c 0
 721 -65 705 -77 680 -77 c 2
 95 -77 l 2
 71 -77 56 -64 56 -46 c 0
EndSplineSet
EndChar
StartChar: lessoverequal
Encoding: 8806 8806 726
Width: 777
Flags: W
LayerCount: 2
Fore
SplineSet
56 34 m 0
 56 51 69 65 92 65 c 0
 95 65 99 64 102 64 c 2
 682 64 l 2
 706 64 720 52 720 34 c 0
 720 14 705 3 680 3 c 2
 94 3 l 2
 71 3 56 16 56 34 c 0
56 -126 m 0
 56 -109 69 -95 92 -95 c 0
 95 -95 99 -96 102 -96 c 2
 682 -96 l 2
 706 -96 720 -108 720 -126 c 0
 720 -146 705 -157 680 -157 c 2
 94 -157 l 2
 71 -157 56 -144 56 -126 c 0
82 380 m 1
 85 396 87 401 116 416 c 2
 642 632 l 2
 648 635 655 638 662 638 c 0
 680 638 692 623 692 608 c 0
 692 586 673 577 658 571 c 2
 182 380 l 1
 201 371 227 361 244 355 c 2
 658 189 l 2
 672 182 692 174 692 152 c 0
 692 136 679 122 662 122 c 0
 651 122 636 132 624 138 c 2
 116 344 l 2
 76 360 85 372 82 380 c 1
EndSplineSet
EndChar
StartChar: greateroverequal
Encoding: 8807 8807 727
Width: 777
Flags: W
LayerCount: 2
Fore
SplineSet
56 34 m 4
 56 51 69 65 92 65 c 0
 95 65 99 64 102 64 c 2
 682 64 l 2
 706 64 720 52 720 34 c 0
 720 14 705 3 680 3 c 2
 94 3 l 2
 71 3 56 16 56 34 c 4
56 -126 m 4
 56 -109 69 -95 92 -95 c 0
 95 -95 99 -96 102 -96 c 2
 682 -96 l 2
 706 -96 720 -108 720 -126 c 0
 720 -146 705 -157 680 -157 c 2
 94 -157 l 2
 71 -157 56 -144 56 -126 c 4
82 152 m 0
 82 174 104 182 118 189 c 2
 594 380 l 1
 577 389 555 395 534 406 c 2
 118 571 l 2
 103 577 82 586 82 608 c 0
 82 623 96 638 114 638 c 0
 125 638 140 627 152 622 c 2
 660 416 l 2
 699 396 690 388 692 380 c 1
 690 364 690 356 660 344 c 2
 134 129 l 2
 127 125 121 122 114 122 c 0
 96 122 82 137 82 152 c 0
EndSplineSet
EndChar
StartChar: muchless
Encoding: 8810 8810 731
Width: 1177
Flags: W
LayerCount: 2
Fore
SplineSet
483 250 m 3
 483 266.279296875 488 271 517 286 c 2
 1043 552 l 2
 1049 555 1056 558 1063 558 c 0
 1081 558 1093 543 1093 528 c 0
 1093 506 1073 498 1059 491 c 2
 582 250 l 1
 601 241 628 227 644 219 c 2
 1059 9 l 2
 1073 2 1093 -6 1093 -28 c 0
 1093 -44 1080 -58 1063 -58 c 0
 1052 -58 1036 -48 1024 -42 c 2
 517 214 l 2
 485.465820312 229.922851562 483 241.456054688 483 250 c 3
83 250 m 3
 83 266.278820596 88 271 117 286 c 2
 643 552 l 2
 649 555 656 558 663 558 c 0
 681 558 693 543 693 528 c 0
 693 506 673 498 659 491 c 2
 182 250 l 1
 201 241 228 227 244 219 c 2
 659 9 l 2
 673 2 693 -6 693 -28 c 0
 693 -44 680 -58 663 -58 c 0
 652 -58 636 -48 624 -42 c 2
 117 214 l 2
 85.4658369112 229.922575445 83 241.455996255 83 250 c 3
EndSplineSet
EndChar
StartChar: muchgreater
Encoding: 8811 8811 732
Width: 1177
Flags: W
LayerCount: 2
Fore
SplineSet
483 -28 m 0
 483 -6 504 2 518 9 c 2
 995 250 l 1
 978 259 955 270 934 281 c 2
 518 491 l 2
 504 498 483 506 483 528 c 0
 483 543 496 558 514 558 c 0
 525 558 541 548 553 542 c 2
 1060 286 l 2
 1088.34667969 271.686523438 1093 258.24609375 1093 250 c 3
 1093 233.875 1089 229 1060 214 c 2
 535 -51 l 2
 528 -55 521 -58 514 -58 c 0
 496 -58 483 -43 483 -28 c 0
83 -28 m 0
 83 -6 104 2 118 9 c 2
 595 250 l 1
 578 259 555 270 534 281 c 2
 118 491 l 2
 104 498 83 506 83 528 c 0
 83 543 96 558 114 558 c 0
 125 558 141 548 153 542 c 2
 660 286 l 2
 688.346798518 271.686823628 693 258.246211251 693 250 c 3
 693 233.875484503 689 229 660 214 c 2
 135 -51 l 2
 128 -55 121 -58 114 -58 c 0
 96 -58 83 -43 83 -28 c 0
EndSplineSet
EndChar
StartChar: greaterorequivalent
Encoding: 8819 8819 742
Width: 777
Flags: W
LayerCount: 2
Fore
SplineSet
58 -56 m 1xb0
 61 19 190 63 255 63 c 0x70
 323 63 450 6 514 6 c 0xb0
 548 6 647 25 651 63 c 1
 712 63 l 1x70
 709 -11 580 -56 515 -56 c 0xb0
 447 -56 320 2 256 2 c 0x70
 222 2 123 -18 119 -56 c 1
 58 -56 l 1xb0
82 152 m 0
 82 174 104 182 118 189 c 2
 594 380 l 1
 577 389 555 395 534 406 c 2
 118 571 l 2
 103 577 82 586 82 608 c 0
 82 623 96 638 114 638 c 0
 125 638 140 627 152 622 c 2
 660 416 l 2
 699 396 690 388 692 380 c 1
 690 364 690 356 660 344 c 2
 134 129 l 2
 127 125 121 122 114 122 c 0
 96 122 82 137 82 152 c 0
EndSplineSet
EndChar
StartChar: greaterorless
Encoding: 8823 8823 737
Width: 777
Flags: W
LayerCount: 2
Fore
SplineSet
82 80 m 1
 85 96 87 101 116 116 c 2
 642 332 l 2
 648 335 655 338 662 338 c 0
 680 338 692 323 692 308 c 0
 692 286 673 277 658 271 c 2
 182 80 l 1
 201 71 227 61 244 55 c 2
 658 -111 l 2
 672 -118 692 -126 692 -148 c 0
 692 -164 679 -178 662 -178 c 0
 651 -178 636 -168 624 -162 c 2
 116 44 l 2
 76 60 85 72 82 80 c 1
82 252 m 0
 82 274 104 282 118 289 c 2
 594 480 l 1
 577 489 555 495 534 506 c 2
 118 671 l 2
 103 677 82 686 82 708 c 0
 82 723 96 738 114 738 c 0
 125 738 140 727 152 722 c 2
 660 516 l 2
 699 496 690 488 692 480 c 1
 690 464 690 456 660 444 c 2
 134 229 l 2
 127 225 121 222 114 222 c 0
 96 222 82 237 82 252 c 0
EndSplineSet
EndChar
StartChar: notsuperset
Encoding: 8837 8837 752
Width: 778
Flags: W
LayerCount: 2
Fore
SplineSet
317 9 m 1
 393 9 l 2
 526 9 634 117 634 250 c 0
 634 353 570 440 479 475 c 1
 317 9 l 1
85 -21 m 0
 85 -4 100 9 123 9 c 2
 252 9 l 1
 419 490 l 1
 410 491 402 491 393 491 c 2
 122 491 l 2
 100 491 85 503 85 521 c 0
 85 539 100 552 125 552 c 2
 393 552 l 2
 409 552 424 550 439 548 c 1
 466 625 l 2
 470 636 476 654 498 654 c 0
 513 654 528 643 528 624 c 0
 528 616 524 605 521 596 c 2
 499 533 l 1
 614 490 695 380 695 250 c 0
 695 83 560 -52 393 -52 c 2
 296 -52 l 1
 262 -150 l 2
 256 -168 246 -180 230 -180 c 0
 214 -180 200 -166 200 -149 c 0
 200 -140 205 -127 209 -116 c 2
 231 -52 l 1
 126 -52 l 2
 101 -52 85 -40 85 -21 c 0
EndSplineSet
EndChar
StartChar: subsetorequal
Encoding: 8838 8838 753
Width: 778
Flags: W
LayerCount: 2
Fore
SplineSet
83 325 m 0
 83 492 218 552 385 552 c 2
 653 552 l 2
 678 552 693 538.91796875 693 521 c 0
 693 502.896484375 678 491 656 491 c 2
 385 491 l 2
 252 491 144 458 144 325 c 0
 144 192 252 159 385 159 c 2
 655 159 l 2
 678 159 693 145.724609375 693 129 c 0
 693 109.583007812 677 98 652 98 c 2
 385 98 l 2
 218 98 83 158 83 325 c 0
56 -46 m 0
 56 -29 69 -15 92 -15 c 0
 95 -15 99 -16 102 -16 c 2
 683 -16 l 2
 706 -16 721 -29 721 -46 c 0
 721 -65 705 -77 680 -77 c 2
 95 -77 l 2
 71 -77 56 -64 56 -46 c 0
EndSplineSet
EndChar
StartChar: subsetnotequal
Encoding: 8842 8842 755
Width: 778
Flags: W
LayerCount: 2
Fore
SplineSet
56 -46 m 0
 56 -29 69 -15 92 -15 c 0
 95 -15 99 -16 102 -16 c 2
 374 -16 l 1
 414 98 l 1
 385 98 l 2
 218 98 83 158 83 325 c 0
 83 492 218 552 385 552 c 2
 653 552 l 2
 678 552 693 539 693 521 c 0
 693 503 678 491 656 491 c 2
 385 491 l 2
 252 491 144 458 144 325 c 0
 144 192 252 159 385 159 c 2
 655 159 l 2
 678 159 693 146 693 129 c 0
 693 110 677 98 652 98 c 2
 480 98 l 1
 439 -16 l 1
 683 -16 l 2
 706 -16 721 -29 721 -46 c 0
 721 -65 705 -77 680 -77 c 2
 418 -77 l 1
 385 -170 l 2
 379 -188 369 -200 353 -200 c 0
 337 -200 323 -186 323 -169 c 0
 323 -160 328 -147 332 -136 c 2
 353 -77 l 1
 95 -77 l 2
 71 -77 56 -64 56 -46 c 0
EndSplineSet
EndChar
StartChar: circlemultiply
Encoding: 8855 8855 769
Width: 778
Flags: W
LayerCount: 2
Fore
SplineSet
432 249 m 1
 579 102 l 1
 611 143 630 194 630 250 c 0
 630 305 611 356 580 397 c 1
 432 249 l 1
242 59 m 1
 283 28 334 9 389 9 c 0
 444 9 495 28 536 59 c 1
 389 206 l 1
 242 59 l 1
241 440 m 1
 389 292 l 1
 537 440 l 1
 496 472 445 491 389 491 c 0
 333 491 282 472 241 440 c 1
87 250 m 0
 87 417 222 552 389 552 c 0
 556 552 691 417 691 250 c 0
 691 83 556 -52 389 -52 c 0
 222 -52 87 83 87 250 c 0
148 250 m 0
 148 194 167 143 199 102 c 1
 346 249 l 1
 198 397 l 1
 167 356 148 305 148 250 c 0
EndSplineSet
EndChar
StartChar: projective
Encoding: 8965 8965 765
Width: 778
Flags: W
LayerCount: 2
Fore
SplineSet
56 508 m 0
 56 515 58 525 68 532 c 0
 74 536 83 539 96 539 c 2
 680 539 l 2
 692 539 702 537 708 533 c 0
 719 526 720 514 720 508 c 0
 720 501 718 491 710 485 c 0
 704 481 696 478 684 478 c 2
 92 478 l 2
 77 478 69 482 64 487 c 0
 57 494 56 504 56 508 c 0
81 -25 m 0
 81 -14 92 0 100 11 c 2
 353 371 l 2
 373 399 380 402 389 402 c 3
 405 402 408 396 425 371 c 2
 688 -8 l 2
 692 -13 697 -18 697 -25 c 0
 697 -43 682 -55 667 -55 c 0
 645 -55 636 -37 627 -24 c 2
 389 316 l 1
 151 -24 l 2
 141 -36 133 -55 111 -55 c 0
 95 -55 81 -42 81 -25 c 0
EndSplineSet
EndChar
